<svg width="20" height="20" viewBox="0 0 20 20" fill="none" xmlns="http://www.w3.org/2000/svg">
<g clip-path="url(#clip0_49_943)">
<path d="M6.94324 14.8715C6.90463 14.9417 6.84482 14.9628 6.78867 14.9628C6.73251 14.9628 6.67636 14.9417 6.63776 14.8715L6.23386 14.113V15.6509C6.23386 15.7458 6.11804 15.795 6.00574 15.795C5.88977 15.795 5.77747 15.7458 5.77747 15.6509V13.4563C5.77747 13.2878 5.88977 13.2281 6.00574 13.2281C6.17068 13.2281 6.24454 13.2632 6.36035 13.4703L6.79233 14.2569L7.22415 13.4703C7.34012 13.2632 7.41733 13.2281 7.58243 13.2281C7.69824 13.2281 7.81055 13.2878 7.81055 13.4563V15.6509C7.81055 15.7458 7.69473 15.795 7.58243 15.795C7.46646 15.795 7.35416 15.7458 7.35416 15.6509V14.1411L6.94324 14.8715Z" fill="white"/>
<path d="M9.08142 14.3306H9.61517C9.70642 14.3306 9.75906 14.4185 9.75906 14.5133C9.75906 14.594 9.71344 14.6889 9.61517 14.6889H9.08142V15.3946H10.0751C10.1665 15.3946 10.2191 15.4894 10.2191 15.5983C10.2191 15.6931 10.1735 15.795 10.0751 15.795H8.82507C8.7233 15.795 8.62488 15.7457 8.62488 15.651V13.3721C8.62488 13.2773 8.72314 13.228 8.82507 13.228H10.0751C10.1735 13.228 10.2191 13.33 10.2191 13.4247C10.2191 13.5337 10.1665 13.6284 10.0751 13.6284H9.08142V14.3306Z" fill="white"/>
<path d="M12.0906 15.651L11.3356 14.2394V15.651C11.3356 15.7459 11.2198 15.795 11.1073 15.795C10.9915 15.795 10.879 15.7459 10.879 15.651V13.3721C10.879 13.2738 10.9915 13.2282 11.1073 13.2282C11.2724 13.2282 11.3391 13.2633 11.448 13.4703L12.1257 14.7801V13.3686C12.1257 13.2703 12.238 13.228 12.3539 13.228C12.4662 13.228 12.5821 13.2701 12.5821 13.3686V15.651C12.5821 15.7457 12.4662 15.795 12.3539 15.795C12.245 15.795 12.1502 15.7599 12.0906 15.651Z" fill="white"/>
<path d="M14.6152 13.3685C14.6152 13.2703 14.7275 13.2281 14.8433 13.2281C14.9558 13.2281 15.0716 13.2703 15.0716 13.3685V15.0119C15.0716 15.5983 14.6994 15.816 14.2289 15.816C13.7548 15.816 13.3861 15.5983 13.3861 15.0119V13.3685C13.3861 13.2703 13.4984 13.2281 13.6144 13.2281C13.7267 13.2281 13.8425 13.2703 13.8425 13.3685V15.0119C13.8425 15.2858 13.9865 15.4158 14.2289 15.4158C14.4712 15.4158 14.6151 15.2858 14.6151 15.0119V13.3685H14.6152Z" fill="white"/>
<path d="M15.5179 16.4901H13.8488C13.6849 16.4901 13.5521 16.6229 13.5521 16.7866C13.5521 16.9505 13.6849 17.0831 13.8488 17.0831H15.5179C15.6818 17.0831 15.8144 16.9505 15.8144 16.7866C15.8144 16.6229 15.6818 16.4901 15.5179 16.4901Z" fill="white"/>
<path d="M12.469 16.4901H5.71347C5.54974 16.4901 5.41699 16.6229 5.41699 16.7866C5.41699 16.9505 5.54974 17.0831 5.71347 17.0831H12.469C12.6329 17.0831 12.7655 16.9505 12.7655 16.7866C12.7655 16.6229 12.6329 16.4901 12.469 16.4901Z" fill="white"/>
<path d="M15.5179 11.9625H5.71347C5.54974 11.9625 5.41699 12.0953 5.41699 12.259C5.41699 12.4227 5.54974 12.5555 5.71347 12.5555H15.5179C15.6817 12.5555 15.8143 12.4227 15.8143 12.259C15.8143 12.0953 15.6817 11.9625 15.5179 11.9625Z" fill="white"/>
<path d="M15.3529 8.28618H15.0651C14.954 6.24319 13.4607 4.56198 11.5062 4.16403L11.5634 3.617C11.5822 3.43848 11.5239 3.25964 11.4038 3.12643C11.2837 2.99307 11.1119 2.91663 10.9324 2.91663H10.299C10.1194 2.91663 9.94778 2.99322 9.82755 3.12643C9.70746 3.2598 9.64932 3.43863 9.66809 3.617L9.72531 4.16403C7.77081 4.56198 6.27744 6.24304 6.16635 8.28603H5.87857C5.62405 8.28603 5.41699 8.49309 5.41699 8.74761V9.35949C5.41699 9.614 5.62405 9.82106 5.87857 9.82106H15.3528C15.6073 9.82106 15.8143 9.614 15.8143 9.35949V8.74761C15.8143 8.49325 15.6074 8.28618 15.3529 8.28618ZM10.2682 3.52331C10.2765 3.51431 10.2867 3.50973 10.299 3.50973H10.9324C10.9446 3.50973 10.955 3.51431 10.9633 3.52331C10.9715 3.53247 10.975 3.5433 10.9736 3.55536L10.9182 4.08514C10.8183 4.07843 10.7174 4.07461 10.6158 4.07461C10.514 4.07461 10.4133 4.07843 10.3134 4.08514L10.2578 3.55536C10.2566 3.5433 10.2601 3.53247 10.2682 3.52331ZM15.2214 9.22811H6.0101V8.87914H7.25964C7.42352 8.87914 7.55627 8.74639 7.55627 8.58266C7.55627 8.41894 7.42352 8.28618 7.25964 8.28618H6.76053C6.88718 6.26959 8.56778 4.66772 10.6157 4.66772C12.6637 4.66772 14.3443 6.26959 14.4709 8.28618H8.63934C8.47546 8.28618 8.34286 8.41894 8.34286 8.58266C8.34286 8.74639 8.47546 8.87914 8.63934 8.87914H15.2214V9.22811Z" fill="white"/>
<path d="M17.6361 0H3.59543C3.17917 0 2.84042 0.338744 2.84042 0.755003V1.29059H2.56378C2.05475 1.29059 1.64062 1.70486 1.64062 2.21389C1.64062 2.72293 2.05475 3.1372 2.56378 3.1372H2.84042V4.40505H2.56378C2.05475 4.40505 1.64062 4.81917 1.64062 5.32836C1.64062 5.83739 2.05475 6.25151 2.56378 6.25151H2.84042V7.51952H2.56378C2.05475 7.51952 1.64062 7.93364 1.64062 8.44282C1.64062 8.95186 2.05475 9.36598 2.56378 9.36598H2.84042V10.634H2.56378C2.05475 10.634 1.64062 11.0481 1.64062 11.5571C1.64062 12.0663 2.05475 12.4804 2.56378 12.4804H2.84042V13.7484H2.56378C2.05475 13.7484 1.64062 14.1626 1.64062 14.6716C1.64062 15.1808 2.05475 15.5949 2.56378 15.5949H2.84042V16.8629H2.56378C2.05475 16.8629 1.64062 17.277 1.64062 17.7861C1.64062 18.2951 2.05475 18.7094 2.56378 18.7094H2.84042V19.245C2.84042 19.6612 3.17917 20 3.59543 20H17.6361C18.0524 20 18.3913 19.6612 18.3913 19.245V0.755003C18.3913 0.338744 18.0524 0 17.6361 0V0ZM2.84027 2.54425H2.56378C2.38174 2.54425 2.23358 2.39608 2.23358 2.21389C2.23358 2.03186 2.38174 1.88369 2.56378 1.88369H2.84027V2.54425ZM2.84027 5.65856H2.56378C2.38174 5.65856 2.23358 5.5104 2.23358 5.32836C2.23358 5.14617 2.38174 4.99816 2.56378 4.99816H2.84027V5.65856ZM2.84027 8.77302H2.56378C2.38174 8.77302 2.23358 8.62486 2.23358 8.44282C2.23358 8.26063 2.38174 8.11247 2.56378 8.11247H2.84027V8.77302ZM2.84027 11.8875H2.56378C2.38174 11.8875 2.23358 11.7393 2.23358 11.5571C2.23358 11.3751 2.38174 11.2269 2.56378 11.2269H2.84027V11.8875ZM2.84027 15.0018H2.56378C2.38174 15.0018 2.23358 14.8538 2.23358 14.6716C2.23358 14.4896 2.38174 14.3414 2.56378 14.3414H2.84027V15.0018ZM2.84027 18.1163H2.56378C2.38174 18.1163 2.23358 17.9681 2.23358 17.7861C2.23358 17.6039 2.38174 17.4559 2.56378 17.4559H2.84027V18.1163ZM17.7982 19.2448C17.7982 19.3342 17.7255 19.407 17.6361 19.407H3.59543C3.50601 19.407 3.43338 19.3342 3.43338 19.2448V0.755003C3.43338 0.66574 3.50601 0.592955 3.59543 0.592955H17.6361C17.7255 0.592955 17.7982 0.66574 17.7982 0.755003V19.2448Z" fill="white"/>
</g>
<defs>
<clipPath id="clip0_49_943">
<rect width="20" height="20" fill="white"/>
</clipPath>
</defs>
</svg>
