<svg width="20" height="20" viewBox="0 0 20 20" fill="none" xmlns="http://www.w3.org/2000/svg">
<path d="M17.8129 11.0158C19.1703 10.1013 20 8.56017 20 6.91079C20 6.12689 19.8217 5.37677 19.4699 4.68142C19.3969 4.53704 19.2206 4.47919 19.0763 4.5522C18.9319 4.62521 18.874 4.80149 18.9471 4.94583C19.2569 5.55849 19.4141 6.21962 19.4141 6.91079C19.4141 8.39415 18.6526 9.7781 17.4126 10.5777L15.7069 8.71126C15.5088 8.49439 15.2266 8.37005 14.9329 8.37005H10.9444C10.7782 7.90255 10.6938 7.41259 10.6938 6.91079C10.6938 4.50661 12.6498 2.55071 15.0539 2.55071C16.3011 2.55071 17.4911 3.08681 18.3189 4.02153C18.4261 4.14263 18.6112 4.15396 18.7325 4.04661C18.8536 3.93935 18.8648 3.75419 18.7575 3.63306C18.3271 3.14704 17.8102 2.75642 17.2404 2.47544V1.48321C17.2404 1.12267 16.9471 0.829346 16.5866 0.829346H13.5214C13.1608 0.829346 12.8675 1.12267 12.8675 1.48321V2.47517C11.2339 3.28368 10.1079 4.96806 10.1079 6.91079C10.1079 7.41017 10.1818 7.89923 10.3273 8.37005H2.85656C2.48285 8.37005 2.17586 8.65896 2.1459 9.02513H1.07422C0.912422 9.02513 0.78125 9.15626 0.78125 9.3181C0.78125 9.47993 0.912422 9.61106 1.07422 9.61106H2.14293V12.4428H0.292969C0.131172 12.4428 0 12.5739 0 12.7358C0 12.8976 0.131172 13.0287 0.292969 13.0287H2.14293V13.8856C1.98242 13.8871 1.8527 14.0176 1.8527 14.1784C1.8527 14.3393 1.98238 14.4698 2.14293 14.4713V16.5436C2.14293 16.8512 2.39316 17.1014 2.7007 17.1014H3.48895V17.3053H2.57488C2.41309 17.3053 2.28191 17.4365 2.28191 17.5983C2.28191 17.7601 2.41309 17.8913 2.57488 17.8913H3.78191C3.94371 17.8913 4.07488 17.7601 4.07488 17.5983V17.1014H4.34219C4.43516 18.2578 5.40527 19.1705 6.5852 19.1705C6.97457 19.1705 7.35895 19.0689 7.69672 18.8767C7.83734 18.7967 7.88645 18.6178 7.80645 18.4772C7.72645 18.3365 7.54762 18.2875 7.40691 18.3674C7.1573 18.5095 6.87312 18.5846 6.5852 18.5846C5.66711 18.5846 4.92016 17.8377 4.92016 16.9195C4.92016 16.0014 5.66711 15.2545 6.5852 15.2545C7.50328 15.2545 8.25023 16.0014 8.25023 16.9195C8.25023 17.1699 8.19598 17.4106 8.08895 17.6351C8.0193 17.7811 8.08129 17.956 8.2273 18.0256C8.3734 18.0952 8.5482 18.0333 8.61785 17.8872C8.73656 17.6383 8.80645 17.3745 8.82812 17.1014H14.0959C14.1888 18.2578 15.1589 19.1705 16.3389 19.1705C17.5188 19.1705 18.4889 18.2578 18.5819 17.1014H19.185C19.6344 17.1014 20 16.7358 20 16.2863V13.8149C20 13.5531 19.9028 13.3025 19.7262 13.1093L17.8129 11.0158ZM13.4534 1.48321C13.4534 1.44575 13.4839 1.41528 13.5214 1.41528H16.5866C16.624 1.41528 16.6545 1.44575 16.6545 1.48321V2.23188C16.1443 2.05716 15.6041 1.96481 15.0539 1.96481C14.4941 1.96481 13.9557 2.05849 13.4534 2.23071V1.48321H13.4534ZM15.2744 9.10657L18.3232 12.4428H16.1378C15.976 12.4428 15.8448 12.5739 15.8448 12.7358C15.8448 12.8976 15.976 13.0287 16.1378 13.0287H18.8587L19.2937 13.5047C19.471 13.6988 19.3965 13.9093 19.4141 14.1328H19.1882C19.0264 14.1328 18.8952 14.264 18.8952 14.4258C18.8952 14.5876 19.0264 14.7188 19.1882 14.7188H19.4141V15.1523H17.7304C17.3471 14.8498 16.8639 14.6686 16.3389 14.6686C15.8139 14.6686 15.3307 14.8498 14.9474 15.1523H11.7553V8.95603H13.0189V12.4391C13.0189 12.7642 13.2834 13.0288 13.6085 13.0288H14.9666C15.1284 13.0288 15.2595 12.8976 15.2595 12.7358C15.2595 12.574 15.1284 12.4428 14.9666 12.4428H13.6085C13.6064 12.4428 13.6048 12.4411 13.6048 12.4391V8.95603H14.933C15.0625 8.95603 15.187 9.01091 15.2744 9.10657ZM14.1249 16.5155H11.7552V15.7382H14.4239C14.2789 15.9724 14.176 16.235 14.1249 16.5155ZM8.50012 15.7382H11.1693V16.5155H8.7991C8.74801 16.235 8.64512 15.9724 8.50012 15.7382V15.7382ZM2.72887 15.7382H4.6702C4.5252 15.9724 4.4223 16.235 4.37121 16.5155H2.72887V15.7382ZM5.19363 15.1523H2.72887V14.4715H3.9984C4.1602 14.4715 4.29137 14.3403 4.29137 14.1785C4.29137 14.0167 4.1602 13.8855 3.9984 13.8855H2.72887V13.0287H3.9984C4.1602 13.0287 4.29137 12.8976 4.29137 12.7358C4.29137 12.5739 4.1602 12.4428 3.9984 12.4428H2.72887V9.08372C2.72887 9.01329 2.78613 8.95599 2.85656 8.95599H11.1693V15.1522H7.97672C7.59344 14.8498 7.1102 14.6686 6.5852 14.6686C6.0602 14.6686 5.57695 14.8498 5.19363 15.1523V15.1523ZM16.3389 18.5847C15.4207 18.5847 14.6738 17.8377 14.6738 16.9196C14.6738 16.0015 15.4207 15.2546 16.3389 15.2546C17.257 15.2546 18.0039 16.0015 18.0039 16.9196C18.0039 17.8377 17.257 18.5847 16.3389 18.5847ZM19.1849 16.5155H18.5528C18.5017 16.235 18.3988 15.9724 18.2538 15.7382H19.4141V16.2864C19.4141 16.4127 19.3113 16.5155 19.1849 16.5155Z" fill="#AEAEAE"/>
</svg>
