<svg width="20" height="20" viewBox="0 0 20 20" fill="none" xmlns="http://www.w3.org/2000/svg">
<g clip-path="url(#clip0_49_978)">
<path d="M19.6081 9.61574C19.6081 9.61574 19.608 9.61574 19.608 9.61574C19.3923 9.61574 19.2175 9.79047 19.2174 10.0061C19.2161 12.4664 18.2574 14.7794 16.5176 16.5191C14.7767 18.26 12.462 19.2188 9.99994 19.2188C7.53787 19.2188 5.22326 18.26 3.48229 16.519C1.74135 14.7781 0.782559 12.4634 0.782559 10.0013C0.782559 7.53926 1.74131 5.22457 3.48229 3.48363C6.27611 0.689767 10.5328 -0.0147251 14.0746 1.73051C14.2679 1.82582 14.5022 1.74625 14.5975 1.55281C14.6929 1.35934 14.6133 1.1252 14.4198 1.02985C10.5779 -0.863319 5.96049 -0.0991394 2.92998 2.93129C1.0415 4.81977 0.00146484 7.33059 0.00146484 10.0013C0.00146484 12.672 1.0415 15.1829 2.92994 17.0714C4.81846 18.9599 7.32932 19.9999 10 19.9999C12.6707 19.9999 15.1816 18.9598 17.0701 17.0714C18.9571 15.1843 19.9972 12.6752 19.9985 10.0065C19.9986 9.79078 19.8239 9.61586 19.6081 9.61574Z" fill="white"/>
<path d="M15.7622 1.8284L15.752 1.82126C15.5753 1.69754 15.3317 1.74051 15.208 1.91727C15.0844 2.09395 15.1274 2.33747 15.3041 2.46118L15.3132 2.46762C15.3815 2.51559 15.4598 2.53864 15.5374 2.53864C15.6603 2.53864 15.7813 2.48075 15.8573 2.37255C15.9813 2.19598 15.9387 1.95243 15.7622 1.8284Z" fill="white"/>
<path d="M17.6482 9.60803C17.4325 9.60803 17.2576 9.78288 17.2576 9.99862L17.2576 10.0225C17.2566 10.2382 17.4307 10.4139 17.6464 10.4148C17.647 10.4148 17.6476 10.4148 17.6482 10.4148C17.8631 10.4148 18.0378 10.2411 18.0387 10.026L18.0388 9.99858C18.0388 9.78288 17.8639 9.60803 17.6482 9.60803Z" fill="white"/>
<path d="M17.5645 11.201C17.3536 11.1565 17.1464 11.2917 17.1019 11.5028C16.3994 14.8406 13.4097 17.2633 9.99321 17.2633C5.98751 17.2633 2.72864 14.0044 2.72864 9.9987C2.72864 7.40448 4.0956 5.0478 6.28224 3.75116C6.25685 3.91511 6.33856 4.08355 6.49521 4.16093C6.55087 4.18843 6.60989 4.20148 6.66794 4.20148C6.81185 4.20148 6.95028 4.12159 7.01841 3.98386L7.45106 3.10831C7.54665 2.91495 7.46735 2.68073 7.27399 2.58515L6.39841 2.15245C6.20497 2.05687 5.97083 2.1362 5.87521 2.32956C5.77962 2.52292 5.85892 2.75714 6.05228 2.85273L6.17603 2.91386C3.58399 4.30835 1.94751 7.01136 1.94751 9.99863C1.94751 14.435 5.55677 18.0443 9.99321 18.0443C11.85 18.0443 13.6617 17.3967 15.0945 16.2207C16.5076 15.0609 17.492 13.4425 17.8663 11.6636C17.9107 11.4526 17.7756 11.2455 17.5645 11.201Z" fill="white"/>
<path d="M9.99994 8.75159C9.44721 8.75159 8.97741 9.11245 8.81295 9.61084H5.58651C5.37084 9.61084 5.19592 9.78569 5.19592 10.0014C5.19592 10.2171 5.37081 10.392 5.58651 10.392H8.81295C8.93682 10.7674 9.23393 11.0646 9.60936 11.1884V15.4526C9.60936 15.6683 9.78424 15.8432 9.99991 15.8432C10.2156 15.8432 10.3905 15.6683 10.3905 15.4526V11.1884C10.8889 11.024 11.2497 10.5541 11.2497 10.0014C11.2497 9.31225 10.6891 8.75159 9.99994 8.75159ZM9.99994 10.4701C9.74151 10.4701 9.53127 10.2599 9.53127 10.0014C9.53127 9.74299 9.74151 9.53276 9.99994 9.53276C10.2584 9.53276 10.4686 9.74299 10.4686 10.0014C10.4686 10.2599 10.2584 10.4701 9.99994 10.4701Z" fill="white"/>
<path d="M11.7969 7.29931H11.0357C11.5784 6.75447 12.1875 5.9665 12.1875 5.17369C12.1875 4.40064 11.668 3.88123 10.895 3.88123C10.1823 3.88123 9.60254 4.46103 9.60254 5.17369C9.60254 5.38939 9.77742 5.56427 9.99312 5.56427C10.2088 5.56427 10.3837 5.38943 10.3837 5.17369C10.3837 4.89173 10.6131 4.66236 10.895 4.66236C11.4064 4.66236 11.4064 5.04724 11.4064 5.17369C11.4063 5.98482 10.219 7.03798 9.76176 7.37521C9.62582 7.47521 9.56941 7.65122 9.62203 7.81161C9.67469 7.97197 9.82438 8.08044 9.99316 8.08044H11.797C12.0126 8.08044 12.1875 7.9056 12.1875 7.68986C12.1875 7.47415 12.0125 7.29931 11.7969 7.29931Z" fill="white"/>
<path d="M15.8529 5.59165H15.7922V4.27169C15.7922 4.05599 15.6173 3.8811 15.4016 3.8811C15.1859 3.8811 15.011 4.05595 15.011 4.27169V5.59165H13.9582V4.27169C13.9582 4.05599 13.7833 3.8811 13.5676 3.8811C13.3519 3.8811 13.177 4.05595 13.177 4.27169V5.98224C13.177 6.19794 13.3519 6.37282 13.5676 6.37282H15.011V7.69657C15.011 7.91228 15.1859 8.08716 15.4016 8.08716C15.6173 8.08716 15.7922 7.91231 15.7922 7.69657V6.37282H15.8529C16.0685 6.37282 16.2434 6.19798 16.2434 5.98224C16.2434 5.76649 16.0685 5.59165 15.8529 5.59165Z" fill="white"/>
<path d="M18.6086 5.60153C18.4467 5.60153 18.2921 5.63306 18.1503 5.68974V4.27169C18.1503 4.05599 17.9754 3.8811 17.7597 3.8811C17.544 3.8811 17.3691 4.05595 17.3691 4.27169V7.68977C17.3691 7.90548 17.544 8.08036 17.7597 8.08036C17.9754 8.08036 18.1503 7.90552 18.1503 7.68977V7.21231V6.84091C18.1503 6.58821 18.3559 6.38266 18.6086 6.38266C18.8613 6.38266 19.0668 6.58825 19.0668 6.84091V7.68977C19.0668 7.90548 19.2417 8.08036 19.4574 8.08036C19.6731 8.08036 19.848 7.90552 19.848 7.68977V6.84091C19.848 6.15751 19.2919 5.60153 18.6086 5.60153Z" fill="white"/>
</g>
<defs>
<clipPath id="clip0_49_978">
<rect width="20" height="20" fill="white"/>
</clipPath>
</defs>
</svg>
