<svg width="20" height="20" viewBox="0 0 20 20" fill="none" xmlns="http://www.w3.org/2000/svg">
<g clip-path="url(#clip0_49_930)">
<path d="M8.95387 6.18297C9.19516 6.18297 9.41484 6.08926 9.57887 5.93649C9.74289 6.08926 9.96258 6.18297 10.2039 6.18297C10.71 6.18297 11.1218 5.77118 11.1218 5.26501V4.88176H11.7542C12.0177 4.88176 12.2721 4.77153 12.4523 4.57934L14.2213 2.6927C14.2397 2.67313 14.2656 2.66188 14.2925 2.66188H19.4727C19.7634 2.66188 20 2.42532 20 2.13454V1.24915C20 0.958364 19.7634 0.721802 19.4727 0.721802H14.2528C13.9763 0.721802 13.7136 0.826645 13.5132 1.017L11.4836 2.94391C11.3923 3.03055 11.3102 3.04805 11.1218 3.04879V2.81817C11.1218 2.312 10.71 1.9002 10.2038 1.9002C9.96254 1.9002 9.74285 1.99391 9.57883 2.14668C9.4148 1.99391 9.19512 1.9002 8.95383 1.9002C8.71254 1.9002 8.49285 1.99391 8.32883 2.14668C8.1648 1.99391 7.94512 1.9002 7.70383 1.9002C7.46254 1.9002 7.24285 1.99391 7.07883 2.14668C6.9148 1.99391 6.69512 1.9002 6.45383 1.9002C5.94766 1.9002 5.53586 2.312 5.53586 2.81817V7.47258C5.3359 7.79747 5.27117 8.18399 5.35184 8.5554C4.90023 8.89942 4.49301 9.29786 4.13988 9.74266C4.0393 9.86938 4.06047 10.0537 4.18719 10.1543C4.31391 10.2548 4.4982 10.2337 4.59879 10.107C4.89281 9.73657 5.22766 9.40114 5.59699 9.10661C5.88547 9.50825 6.34039 9.71575 6.79133 9.71575C7.60727 9.71575 8.26566 9.0504 8.26566 8.23899C8.26566 8.11809 8.25012 7.99727 8.21996 7.87973C8.93117 7.73618 9.36516 7.7536 10.0868 7.7536C12.8246 7.7536 14.3258 9.46379 14.4562 9.53583C15.4992 10.5647 16.1302 11.9179 16.2688 13.3648C16.2892 13.5819 16.1823 13.7925 15.9857 13.8993C15.9827 13.9009 15.9798 13.9027 15.9767 13.9043C15.7168 14.0394 15.4367 13.9459 15.2422 13.724C15.2405 13.722 15.2388 13.72 15.2371 13.718C15.1294 13.5927 15.055 13.4194 15.047 13.2403L15.0312 12.8863C15.0086 12.3815 14.5491 12.0204 14.0601 12.1048C13.7469 12.1573 13.4954 12.3826 13.4059 12.6828C13.346 12.8806 13.3968 12.9323 13.3282 13.0859C13.3261 13.0898 13.3234 13.0934 13.3214 13.0975C13.2463 13.2523 13.0986 13.3554 12.927 13.3704C12.7463 13.3861 12.5771 13.3075 12.475 13.1627C12.4185 13.0825 12.385 12.985 12.385 12.8796V12.0938C12.385 11.7111 12.2442 11.4079 12.0026 11.1802C11.9574 11.1377 11.9092 11.0989 11.8586 11.0641C12.1511 10.7947 12.3348 10.4087 12.3348 9.98059C12.3348 9.16821 11.6739 8.50731 10.8615 8.50731C10.0491 8.50731 9.38824 9.16821 9.38824 9.98059C9.38824 10.5643 9.72949 11.0698 10.2229 11.3081C10.0651 11.5058 9.96937 11.7493 9.95352 12.0093C9.95328 12.0129 9.95289 12.0164 9.95273 12.0199C9.9502 12.0679 9.9509 12.0102 9.9509 12.9382C9.9509 13.5357 9.95941 13.5587 9.92219 13.6624C9.92191 13.6632 9.92164 13.6639 9.92137 13.6647C9.84551 13.8729 9.64406 13.9997 9.43824 13.992C9.1757 13.9827 8.96215 13.7526 8.96215 13.4791V13.102V11.4717C8.96215 11.0852 8.6477 10.7708 8.26125 10.7708C8.01391 10.7708 6.10598 10.7708 5.81727 10.7708C5.4034 10.7708 5.04918 11.0524 4.95574 11.4556L4.8323 11.9886C4.77766 12.2236 4.58582 12.3815 4.35641 12.3916C4.1691 12.3997 4.01734 12.3948 3.90645 12.2541C3.85484 12.1901 3.82379 12.1086 3.82379 12.0199V12.0049C3.82375 11.7279 3.86844 11.4522 3.95652 11.1856C4.0073 11.032 3.92391 10.8663 3.77027 10.8155C3.6166 10.7648 3.45098 10.8481 3.40016 11.0018C3.29238 11.3278 3.23777 11.6654 3.23781 12.0049V12.0199C3.23781 12.1054 3.24922 12.1884 3.27027 12.2673C2.11719 12.8618 1.25652 13.9175 0.910195 15.1653C0.402617 15.1995 0 15.6231 0 16.1393C0 16.6375 0.375156 17.0495 0.857773 17.1084L0.98418 18.1303C1.06512 18.7847 1.62344 19.2782 2.28289 19.2782H15.156C15.3178 19.2782 15.4489 19.147 15.4489 18.9852C15.4489 18.8234 15.3178 18.6923 15.156 18.6923H2.28289C1.91875 18.6923 1.61039 18.4197 1.5657 18.0583L1.44914 17.1158H18.5423L18.4257 18.0583C18.381 18.4197 18.0727 18.6923 17.7085 18.6923H16.5232C16.3614 18.6923 16.2302 18.8234 16.2302 18.9852C16.2302 19.147 16.3614 19.2782 16.5232 19.2782H17.7085C18.368 19.2782 18.9263 18.7847 19.0072 18.1303L19.1335 17.1095C19.6203 17.0547 20 16.6406 20 16.1393C20 15.6361 19.6173 15.2206 19.1277 15.1684C18.9651 14.39 18.6396 13.6424 18.1779 12.9934C17.6982 12.3191 17.0691 11.7465 16.3544 11.3313C16.0297 10.5586 15.5618 9.84821 14.9697 9.23704C15.0762 9.03043 15.1319 8.80208 15.1319 8.56473C15.1319 7.75239 14.471 7.09145 13.6586 7.09145C13.2196 7.09145 12.8066 7.28954 12.5293 7.62043C11.7576 7.3234 10.9313 7.16762 10.0868 7.16762C9.59598 7.16762 9.1493 7.15508 8.6218 7.21922V6.12059C8.72488 6.16071 8.8368 6.18297 8.95387 6.18297ZM8.23191 11.3566H8.26129C8.32469 11.3566 8.37625 11.4082 8.37625 11.4716V12.5151C8.09156 12.3282 7.78805 12.1738 7.47148 12.0538C7.6759 11.7732 7.93387 11.5363 8.23191 11.3566ZM12.4008 15.1627C12.5657 14.9474 12.8252 14.8107 13.1089 14.8107C13.2484 14.8107 13.6622 14.7732 13.9605 15.1627H12.4008ZM10.173 14.7426C10.158 14.7035 10.0991 14.5557 10.0339 14.4182C10.0329 14.4162 10.0321 14.4141 10.0311 14.4121C10.2966 14.2447 10.4843 13.965 10.5272 13.6402C10.5273 13.6393 10.5276 13.6383 10.5277 13.6373C10.5279 13.6359 10.528 13.6346 10.5281 13.6333C10.5393 13.5446 10.5369 13.528 10.5369 13.0839C10.9184 12.8058 11.3478 12.5957 11.7991 12.4653C11.7991 12.9216 11.7905 12.988 11.8343 13.1527C11.0927 13.4537 10.5014 14.0241 10.173 14.7426ZM10.7476 11.6065C10.8858 11.5432 11.0275 11.4857 11.17 11.435C11.4434 11.435 11.6813 11.6157 11.766 11.867C11.335 11.978 10.9198 12.1525 10.5369 12.3822V12.0867C10.5369 11.9115 10.6085 11.7369 10.7476 11.6065ZM16.3448 15.1627C16.2768 14.9325 16.1818 14.7099 16.0624 14.5006C16.3378 14.4135 16.5693 14.2269 16.7105 13.9786C16.7117 13.9764 16.713 13.9742 16.7142 13.972C16.9791 14.3339 17.1816 14.7359 17.3136 15.1627H16.3448ZM13.9562 12.9163C13.9603 12.7743 14.0878 12.6613 14.2328 12.6805C14.3509 12.6959 14.4405 12.7935 14.4458 12.9125L14.4553 13.1252C14.292 13.0634 14.1236 13.0152 13.9522 12.9815C13.9541 12.9599 13.9556 12.9382 13.9562 12.9163ZM12.8836 13.9584C13.2218 13.9584 13.5349 13.8039 13.7375 13.5382C14.0483 13.5862 14.3498 13.6925 14.6218 13.8505C14.7868 14.1593 15.0606 14.3884 15.3529 14.4906C15.5116 14.6948 15.6382 14.9223 15.7279 15.1627H14.6272C14.4084 14.6074 13.8639 14.2247 13.2525 14.2247H13.1089C12.4974 14.2247 11.953 14.6074 11.7342 15.1627H10.6327C10.8884 14.4693 11.4359 13.9203 12.1373 13.6636C12.3342 13.8497 12.6007 13.9584 12.8779 13.9584H12.8836V13.9584ZM10.8616 9.09317C11.3508 9.09317 11.7489 9.49122 11.7489 9.98051C11.7489 10.4698 11.3509 10.8679 10.8616 10.8679C10.3723 10.8679 9.97422 10.4698 9.97422 9.98051C9.97422 9.49126 10.3723 9.09317 10.8616 9.09317ZM5.8173 11.3566H7.29531C7.14152 11.514 7.00391 11.6873 6.88477 11.8744C6.53797 11.7929 6.18078 11.7507 5.81973 11.7507H5.48887L5.5266 11.5877C5.55813 11.4517 5.67766 11.3566 5.8173 11.3566ZM3.58707 12.7633C3.94039 13.0588 4.48039 13.0009 4.73148 12.9033C4.73211 12.9031 4.7327 12.9028 4.73328 12.9025C4.99605 12.7998 5.21102 12.5983 5.32973 12.3375C5.37883 12.3364 5.36516 12.3366 5.81977 12.3366C6.7509 12.3366 7.65352 12.6562 8.37629 13.2391C8.37629 13.4987 8.35641 13.7107 8.50215 13.9891C8.68645 14.3411 9.04891 14.5792 9.45941 14.5782C9.55629 14.7698 9.63516 14.9632 9.69945 15.1628H9.0775C8.57668 13.8661 7.32094 12.9226 5.8198 12.9226H5.40246C4.64539 12.9226 3.92469 13.162 3.31832 13.6147C2.79109 14.0084 2.38051 14.5524 2.14477 15.1628H1.52211C1.85703 14.1244 2.60406 13.2534 3.58707 12.7633ZM7.44242 15.1627C7.1409 14.4849 6.47187 14.0429 5.71539 14.0429H5.50672C4.75023 14.0429 4.08121 14.4849 3.77973 15.1627H2.78105C3.25742 14.159 4.26547 13.5085 5.40238 13.5085H5.81973C6.95664 13.5085 7.96469 14.159 8.44106 15.1627H7.44242ZM6.76902 15.1627H4.45316C4.69379 14.8329 5.08 14.6289 5.50676 14.6289H5.71543C6.14211 14.6289 6.52836 14.8329 6.76902 15.1627ZM19.4141 16.1393C19.4141 16.3547 19.2388 16.5299 19.0234 16.5299C18.9039 16.5299 1.34152 16.5299 0.976562 16.5299C0.761172 16.5299 0.585938 16.3547 0.585938 16.1393C0.585938 15.9239 0.761172 15.7487 0.976562 15.7487H19.0234C19.2388 15.7487 19.4141 15.9239 19.4141 16.1393ZM18.5274 15.1627H17.9224C17.7284 14.4355 17.3584 13.7657 16.8416 13.2084C16.8051 12.8782 16.7423 12.5459 16.6638 12.2448C17.6002 12.9754 18.2566 13.9978 18.5274 15.1627ZM13.1043 7.87262C13.7717 7.33868 14.748 7.972 14.5129 8.80629C14.0954 8.44723 13.6092 8.12297 13.1043 7.87262ZM11.887 3.36879L13.9167 1.44184C14.0077 1.35536 14.1271 1.3077 14.2528 1.3077H19.4141V2.07594H14.2925C14.1043 2.07594 13.9225 2.15469 13.7939 2.29196L12.0249 4.17856C11.8832 4.32965 11.768 4.29583 11.1218 4.29583V3.63477C11.3876 3.63368 11.6414 3.60188 11.887 3.36879ZM10.2039 2.4861C10.387 2.4861 10.5359 2.63504 10.5359 2.81813V3.33879V4.58879V5.26501C10.5359 5.44809 10.387 5.59704 10.2039 5.59704C10.0208 5.59704 9.87184 5.44809 9.87184 5.26501V2.81813C9.87184 2.63504 10.0208 2.4861 10.2039 2.4861ZM8.95387 2.4861C9.13695 2.4861 9.2859 2.63504 9.2859 2.81813V5.26501C9.2859 5.44809 9.13695 5.59704 8.95387 5.59704C8.77078 5.59704 8.62184 5.44809 8.62184 5.26501V2.81813C8.62184 2.63504 8.77078 2.4861 8.95387 2.4861ZM7.67871 8.24243C7.67871 8.69336 7.32391 9.10333 6.83789 9.12852C6.32191 9.15352 5.90406 8.74403 5.90406 8.24243C5.90406 7.78723 6.25082 7.40586 6.7002 7.35977C6.70078 7.35969 6.70141 7.35965 6.70199 7.35961C7.22777 7.30676 7.67871 7.72204 7.67871 8.24243ZM6.12184 2.81813C6.12184 2.63504 6.27078 2.4861 6.45387 2.4861C6.63695 2.4861 6.7859 2.63504 6.7859 2.81813V6.7684C6.55301 6.76868 6.32594 6.82415 6.12184 6.9286V2.81813ZM7.95348 7.33704C7.80902 7.15208 7.61324 6.99563 7.38598 6.89497C7.38121 6.89286 7.37664 6.8904 7.37184 6.88836V2.81813C7.37184 2.63504 7.52078 2.4861 7.70387 2.4861C7.88695 2.4861 8.0359 2.63504 8.0359 2.81813V7.31829C8.00883 7.32415 7.98102 7.33071 7.95348 7.33704Z" fill="white"/>
</g>
<defs>
<clipPath id="clip0_49_930">
<rect width="20" height="20" fill="white"/>
</clipPath>
</defs>
</svg>
