<svg width="28" height="28" viewBox="0 0 28 28" fill="none" xmlns="http://www.w3.org/2000/svg">
<g clip-path="url(#clip0_49_1012)" filter="url(#filter0_d_49_1012)">
<g clip-path="url(#clip1_49_1012)">
<path d="M9.45453 9.30441C9.45453 9.05316 9.25122 8.84985 8.99997 8.84985C8.74872 8.84985 8.54541 9.05316 8.54541 9.30441C8.54541 10.498 9.862 12.1369 10.012 12.3202C10.1022 12.4294 10.2327 12.4862 10.364 12.4862C10.4652 12.4862 10.5673 12.4525 10.6521 12.3832C10.8461 12.2239 10.874 11.9376 10.7151 11.7431C10.2278 11.1492 9.45453 9.96224 9.45453 9.30441Z" fill="#FF9900"/>
<path d="M19 8.84985C18.7488 8.84985 18.5455 9.05316 18.5455 9.30441C18.5455 9.96002 17.7722 11.1483 17.2848 11.7436C17.1259 11.9376 17.1543 12.2239 17.3483 12.3832C17.4327 12.4525 17.5348 12.4862 17.6364 12.4862C17.7678 12.4862 17.8978 12.4294 17.988 12.3202C18.138 12.1369 19.4546 10.4981 19.4546 9.30441C19.4546 9.05316 19.2513 8.84985 19 8.84985Z" fill="#FF9900"/>
<path d="M14 8.84985C13.7487 8.84985 13.5454 9.05316 13.5454 9.30441V12.0317C13.5454 12.2829 13.7487 12.4862 14 12.4862C14.2512 12.4862 14.4545 12.2829 14.4545 12.0317V9.30441C14.4545 9.05316 14.2512 8.84985 14 8.84985Z" fill="#FF9900"/>
<path d="M19 1.57723C18.7246 1.57723 18.4367 1.61367 18.1378 1.66919C17.1366 0.502173 15.6547 -0.240967 14 -0.240967C12.3454 -0.240967 10.8634 0.502173 9.86228 1.66915C9.5633 1.61367 9.27544 1.57719 9.00003 1.57719C6.24297 1.57723 4 3.8202 4 6.57722C4 8.46641 5.06534 10.1838 6.73793 11.033L6.72906 17.9022C6.72864 18.398 6.92125 18.8641 7.27149 19.2148C7.62216 19.566 8.0878 19.759 8.58365 19.759H19.4182C20.4409 19.759 21.2728 18.9272 21.2728 17.9044V11.0263C22.9391 10.175 24 8.46019 24 6.57722C24 3.8202 21.757 1.57723 19 1.57723ZM20.3636 17.9045C20.3636 18.4256 19.9393 18.85 19.4181 18.85H8.58361C8.33104 18.85 8.09355 18.7514 7.91466 18.5726C7.7362 18.3937 7.63767 18.1562 7.6381 17.9032L7.64049 16.1227H20.3636V17.9045ZM20.6451 10.3188C20.6211 10.3285 20.5984 10.3401 20.5771 10.3539C20.5199 10.3894 20.4728 10.4364 20.4378 10.4906C20.4023 10.5443 20.3783 10.6064 20.3685 10.673C20.3645 10.6983 20.3632 10.7236 20.3636 10.7494V15.2136H7.64164L7.64747 10.7555C7.6479 10.7307 7.64658 10.7054 7.64304 10.681C7.63328 10.6121 7.60797 10.5482 7.57111 10.4927C7.53647 10.4408 7.49121 10.3955 7.43615 10.3609C7.41352 10.3467 7.38953 10.3343 7.36469 10.324C5.87279 9.67161 4.90908 8.20229 4.90908 6.57722C4.90908 4.32134 6.74415 2.48631 8.99999 2.48631C9.08816 2.48631 9.18122 2.49696 9.27255 2.50416C8.81266 3.30342 8.54543 4.22703 8.54543 5.21358C8.54543 5.46483 8.74874 5.66814 8.99999 5.66814C9.25124 5.66814 9.45455 5.46483 9.45455 5.21358C9.45455 2.70735 11.4938 0.668111 14 0.668111C16.5063 0.668111 18.5454 2.70735 18.5454 5.21358C18.5454 5.46483 18.7488 5.66814 19 5.66814C19.2513 5.66814 19.4546 5.46483 19.4546 5.21358C19.4546 4.22703 19.1873 3.30347 18.7275 2.50416C18.8188 2.49696 18.9118 2.48631 19 2.48631C21.2559 2.48631 23.0909 4.32138 23.0909 6.57722C23.0909 8.19654 22.1312 9.66403 20.6451 10.3188Z" fill="#FF9900"/>
</g>
</g>
<defs>
<filter id="filter0_d_49_1012" x="0" y="0" width="28" height="28" filterUnits="userSpaceOnUse" color-interpolation-filters="sRGB">
<feFlood flood-opacity="0" result="BackgroundImageFix"/>
<feColorMatrix in="SourceAlpha" type="matrix" values="0 0 0 0 0 0 0 0 0 0 0 0 0 0 0 0 0 0 127 0" result="hardAlpha"/>
<feOffset dy="4"/>
<feGaussianBlur stdDeviation="2"/>
<feComposite in2="hardAlpha" operator="out"/>
<feColorMatrix type="matrix" values="0 0 0 0 0 0 0 0 0 0 0 0 0 0 0 0 0 0 0.25 0"/>
<feBlend mode="normal" in2="BackgroundImageFix" result="effect1_dropShadow_49_1012"/>
<feBlend mode="normal" in="SourceGraphic" in2="effect1_dropShadow_49_1012" result="shape"/>
</filter>
<clipPath id="clip0_49_1012">
<rect width="20" height="20" fill="white" transform="translate(4)"/>
</clipPath>
<clipPath id="clip1_49_1012">
<rect width="20" height="20" fill="white" transform="translate(4 -0.240967)"/>
</clipPath>
</defs>
</svg>
